<?xml version="1.0" encoding="UTF-8"?>
<svg version="1.1" xmlns="http://www.w3.org/2000/svg" width="885" height="400">
<path d="M0 0 C11.01814012 10.30905189 17.10131752 25.42734677 18.3929348 40.26555824 C18.48911666 43.37697992 18.49707079 46.47444033 18.46557617 49.5871582 C18.46601425 50.74973145 18.46645233 51.91230469 18.46690369 53.11010742 C18.46483542 56.90301076 18.4415974 60.69545639 18.41796875 64.48828125 C18.4123658 67.13771817 18.4079512 69.78713066 18.40510559 72.43656921 C18.3958378 78.66588198 18.37129669 84.89503391 18.34105712 91.12427634 C18.30734749 98.22478265 18.29098579 105.32529726 18.27597082 112.42586386 C18.24474136 127.01317014 18.18979654 141.60030303 18.125 156.1875 C1.625 156.1875 -14.875 156.1875 -31.875 156.1875 C-31.91238281 148.13472656 -31.94976562 140.08195312 -31.98828125 131.78515625 C-32.01856558 126.67641109 -32.0497166 121.56770057 -32.08398438 116.45898438 C-32.13826497 108.35442822 -32.189817 100.24994373 -32.22143555 92.14526367 C-32.24694933 85.60938166 -32.2879078 79.07370099 -32.33818626 72.53796196 C-32.35484059 70.04740715 -32.36636377 67.55681244 -32.37261391 65.06620979 C-32.38227023 61.57132033 -32.41034943 58.07701923 -32.44262695 54.58227539 C-32.44119186 53.55799942 -32.43975677 52.53372345 -32.4382782 51.47840881 C-32.52798801 44.58696608 -33.16370139 37.67620887 -37.5234375 32.06640625 C-44.2770217 26.91718029 -49.33642921 25.40220079 -57.875 26.1875 C-64.56104562 27.4210495 -69.9532941 30.13989345 -75.6484375 33.78515625 C-77.875 35.1875 -77.875 35.1875 -81.875 37.1875 C-81.875 76.4575 -81.875 115.7275 -81.875 156.1875 C-98.375 156.1875 -114.875 156.1875 -131.875 156.1875 C-131.875 101.4075 -131.875 46.6275 -131.875 -9.8125 C-95.875 -9.8125 -95.875 -9.8125 -89.875 -5.8125 C-88.1953125 -2.796875 -88.1953125 -2.796875 -87 0.4375 C-86.59007812 1.51515625 -86.18015625 2.5928125 -85.7578125 3.703125 C-85.32082031 4.93289062 -85.32082031 4.93289062 -84.875 6.1875 C-84.4109375 5.7028125 -83.946875 5.218125 -83.46875 4.71875 C-61.09083978 -16.9911629 -24.64000763 -19.31688795 0 0 Z " fill="#4742D7" transform="translate(133.875,83.8125)"/>
<path d="M0 0 C15.44404751 13.0714551 24.31427753 30.7713304 26 51 C26.17584714 54.25033589 26.26578127 57.4953661 26.3125 60.75 C26.33030518 61.54245117 26.34811035 62.33490234 26.36645508 63.15136719 C26.35885917 68.73494074 25.46090694 72.95597403 23 78 C20.2227073 79.81816075 18.04469637 80.24884441 14.76055908 80.24050903 C13.92205917 80.24325836 13.08355927 80.24600769 12.21965027 80.24884033 C10.85263725 80.2380545 10.85263725 80.2380545 9.45800781 80.22705078 C8.49182022 80.22734283 7.52563263 80.22763489 6.53016663 80.22793579 C3.33772795 80.22654285 0.14552289 80.21098318 -3.046875 80.1953125 C-5.26076124 80.19158225 -7.47464912 80.18873533 -9.6885376 80.18673706 C-15.51483724 80.1791016 -21.34103713 80.15945376 -27.16729736 80.1373291 C-33.11281993 80.11686886 -39.05835862 80.10773496 -45.00390625 80.09765625 C-56.66931465 80.07620787 -68.33464903 80.04207288 -80 80 C-79.3844355 82.56394194 -78.76245428 85.12603887 -78.13671875 87.6875 C-77.96426636 88.40873047 -77.79181396 89.12996094 -77.61413574 89.87304688 C-75.12476002 100.00402543 -70.67957292 106.96381349 -62 113 C-52.32152957 118.60498695 -40.2520789 118.30082133 -29.515625 116.375 C-22.41536177 114.39681721 -16.17150812 111.06811787 -9.68383789 107.66674805 C-4.49251464 105.03401912 -0.87481542 103.94060706 5 105 C9.64554248 107.22409142 12.38380224 110.46004354 15.5625 114.375 C16.03107422 114.93960938 16.49964844 115.50421875 16.98242188 116.0859375 C19.69235652 119.36059978 22.35307556 122.67421729 25 126 C19.27235295 138.97487392 3.53184732 146.02779592 -8.921875 150.97265625 C-34.83689911 159.62195998 -64.51743252 158.50747859 -89.05078125 146.5078125 C-107.84762464 136.31704656 -120.68402924 118.86648075 -127.0625 98.62890625 C-133.67679535 73.15750926 -132.07234872 45.77081297 -119.05566406 22.79394531 C-108.92438949 5.57733904 -93.11520422 -6.25237595 -74 -12 C-49.12788658 -18.43870995 -20.87139905 -16.1185062 0 0 Z M-71 29 C-75.81504378 35.48425896 -79 41.83625737 -79 50 C-59.2 50 -39.4 50 -19 50 C-20.02348809 39.76511906 -21.26694456 33.17214948 -28.75 26.0625 C-41.06749902 16.30059424 -60.03263207 17.75021058 -71 29 Z " fill="#4742D8" transform="translate(490,86)"/>
<path d="M0 0 C1.89218296 1.64653113 3.73753766 3.31775675 5.5390625 5.0625 C4.08990832 10.31364859 1.68476309 14.29820948 -1.3359375 18.75 C-1.77035156 19.41322266 -2.20476562 20.07644531 -2.65234375 20.75976562 C-7.70959344 28.30007936 -7.70959344 28.30007936 -12.40625 29.6015625 C-21.08641423 29.9437912 -28.69409756 26.18241008 -36.51318359 22.81860352 C-43.81853514 19.98272062 -53.68373134 19.75654988 -61.21875 21.81640625 C-64.97850864 23.58529638 -66.93209213 25.25833077 -68.4609375 29.0625 C-69.01474688 33.33474375 -68.82406264 35.43642218 -66.6484375 39.1875 C-59.94630087 46.26994935 -48.19251493 48.55754992 -39.2109375 51.375 C-22.62130398 56.77014923 -5.37316124 62.92524142 3.1015625 79.375 C8.66723928 91.43659416 8.33935109 106.87499663 3.7890625 119.24609375 C-2.13589204 132.59575695 -11.14691776 141.95462119 -24.4609375 148.0625 C-25.23824219 148.44019531 -26.01554688 148.81789062 -26.81640625 149.20703125 C-48.83942704 159.05652296 -76.29866798 157.13837267 -98.50488281 148.98999023 C-106.79043853 145.75204292 -116.37669339 141.77544933 -122.4609375 135.0625 C-120.76276626 130.09633644 -118.02295701 125.89142456 -115.2109375 121.5 C-114.74558594 120.74525391 -114.28023437 119.99050781 -113.80078125 119.21289062 C-110.51429818 114.07493155 -107.3278791 110.23761299 -101.25 108.390625 C-93.54899897 108.11261052 -87.89139108 111.58429162 -81.28515625 115.08203125 C-72.06498226 119.94103816 -62.34332786 121.78638252 -51.99609375 119.5234375 C-47.21521017 117.90310079 -43.73611175 115.6128485 -41.4609375 111.0625 C-40.9966484 105.49458954 -40.9966484 105.49458954 -42.8359375 100.375 C-50.92434056 93.24950206 -62.11239501 90.70949953 -72.2121582 87.58837891 C-88.32708791 82.57883076 -103.72341856 75.97087909 -112.24609375 60.578125 C-118.61361161 47.39265393 -118.93684978 33.39851542 -114.68359375 19.52734375 C-110.31669801 7.4012427 -101.11921979 -2.1445072 -89.8359375 -8.1875 C-62.26548243 -21.12657546 -24.37581439 -19.19111736 0 0 Z " fill="#4742D8" transform="translate(878.4609375,86.9375)"/>
<path d="M0 0 C2.23413408 1.87061396 4.2828179 3.83327893 6.3046875 5.9296875 C4.74787877 8.4749942 3.18450195 11.01586041 1.6171875 13.5546875 C0.96459961 14.62396484 0.96459961 14.62396484 0.29882812 15.71484375 C-6.62409157 26.89407703 -6.62409157 26.89407703 -10.6953125 28.9296875 C-18.46635456 30.19810139 -24.33997163 27.73095735 -31.30078125 24.4375 C-37.44281916 21.70927603 -42.99896173 20.58511685 -49.6953125 20.6171875 C-50.36820313 20.60107422 -51.04109375 20.58496094 -51.734375 20.56835938 C-57.51822719 20.56277651 -61.71156204 22.03997888 -66.5703125 25.1171875 C-68.46658583 28.17229453 -68.78515883 31.41185828 -68.6953125 34.9296875 C-66.8671339 40.17046616 -62.43776169 42.51660373 -57.6953125 44.9296875 C-53.30564269 46.60567403 -48.8581764 48.05848423 -44.38479614 49.49298096 C-6.1045988 61.85192038 -6.1045988 61.85192038 3.2421875 78.8046875 C9.06908806 91.93033548 8.18851634 106.45395775 3.5859375 119.8671875 C-2.35438693 134.06601175 -12.72404788 143.26435723 -26.80273438 149.20263672 C-51.46054085 158.67515319 -80.02571421 157.05023348 -104.1328125 146.71484375 C-120.3712452 138.5778221 -120.3712452 138.5778221 -122.6953125 133.9296875 C-121.86254883 132.12963867 -121.86254883 132.12963867 -120.52734375 129.97265625 C-119.80514648 128.79799805 -119.80514648 128.79799805 -119.06835938 127.59960938 C-118.55337891 126.78041016 -118.03839844 125.96121094 -117.5078125 125.1171875 C-117.01216797 124.30958984 -116.51652344 123.50199219 -116.00585938 122.66992188 C-108.79919245 111.04595844 -108.79919245 111.04595844 -103.6953125 108.9296875 C-95.72473193 107.59196149 -89.81590602 110.20847076 -82.8828125 113.8671875 C-81.06629418 114.7978491 -79.24735687 115.72380757 -77.42578125 116.64453125 C-76.63582764 117.05823975 -75.84587402 117.47194824 -75.03198242 117.89819336 C-67.48304267 121.23057978 -56.84216814 121.33280605 -49.0703125 118.7421875 C-45.4691959 116.80825451 -43.74264492 115.45109927 -41.6953125 111.9296875 C-40.75636913 108.71045307 -40.5395863 106.63910684 -41.2578125 103.3671875 C-44.62041212 97.66538814 -49.88176801 95.07767011 -55.9453125 92.9921875 C-56.63496094 92.74259277 -57.32460938 92.49299805 -58.03515625 92.23583984 C-61.7269757 90.91437395 -65.44198139 89.68100189 -69.1796875 88.49609375 C-86.56542642 82.97059803 -101.91908386 76.93889725 -112.15234375 61.06640625 C-115.96275094 53.32018605 -117.18429379 46.00361322 -117.0703125 37.4296875 C-117.08191406 36.55699219 -117.09351563 35.68429688 -117.10546875 34.78515625 C-117.04443743 21.05310825 -111.41227571 10.10239085 -102.140625 0.21875 C-98.34543926 -3.33393186 -94.33996257 -5.7754706 -89.6953125 -8.0703125 C-88.80328125 -8.52148438 -87.91125 -8.97265625 -86.9921875 -9.4375 C-59.6897089 -22.0443822 -23.79995589 -18.01273257 0 0 Z " fill="#4742D8" transform="translate(650.6953125,87.0703125)"/>
<path d="M0 0 C2.9861058 1.76288173 4.59678686 3.93775469 6.64453125 6.68359375 C8.68359676 8.76187206 10.52940057 9.39384625 13.26953125 10.33984375 C18.45065399 12.20972263 21.67071443 14.39056121 24.26953125 19.33984375 C24.73852619 21.28630831 25.15146157 23.2467977 25.51953125 25.21484375 C26.84934251 31.67047296 29.86980899 34.27166344 34.88671875 38.30859375 C38.99186748 41.8080648 41.29114166 46.01625335 42.26953125 51.33984375 C42.23951718 53.29894427 42.17416234 55.25768061 42.08203125 57.21484375 C42.0142523 62.78627332 42.7775217 65.1071049 46.26953125 69.33984375 C47.98657442 74.57791217 48.03111333 80.33568039 46.08203125 85.46484375 C45.10558272 88.91996932 45.91830055 90.23559502 47.453125 93.3671875 C50.1336936 99.84415947 49.58770545 106.44315513 47.35546875 112.9453125 C45.23761035 117.61526645 42.41311726 121.9438429 38.07421875 124.76953125 C36.03046719 126.18477497 36.03046719 126.18477497 36.0546875 128.5390625 C36.14621094 129.36019531 36.23773438 130.18132812 36.33203125 131.02734375 C36.56563196 136.74221837 34.90109626 140.01607436 31.26953125 144.33984375 C28.43812976 147.17124524 26.07932986 148.44285691 22.33203125 149.58984375 C17.92626293 151.08598646 16.25021442 153.63840193 13.7109375 157.40234375 C10.98477901 161.06677359 7.58517935 162.90129438 3.26953125 164.33984375 C-14.57364417 165.56280296 -14.57364417 165.56280296 -21.73046875 160.33984375 C-25.31401921 157.05365174 -27.82952697 154.1776951 -28.73046875 149.33984375 C-28.81289069 146.87746608 -28.83790174 144.41295607 -28.828125 141.94921875 C-28.82671005 141.2446051 -28.8252951 140.53999146 -28.82383728 139.81402588 C-28.81825808 137.57258791 -28.80570948 135.33125132 -28.79296875 133.08984375 C-28.78795106 131.5664077 -28.78338862 130.04297007 -28.77929688 128.51953125 C-28.76829549 124.79293603 -28.75104521 121.06639979 -28.73046875 117.33984375 C-25.18943361 117.16463394 -21.64951991 117.0586963 -18.10546875 116.96484375 C-17.10644531 116.91457031 -16.10742188 116.86429687 -15.078125 116.8125 C-6.72992334 116.64664169 -6.72992334 116.64664169 -3.03125 120.078125 C-0.05861592 124.29230065 -0.05861592 124.29230065 -0.54296875 127.90234375 C-0.83668706 131.95292417 -0.37744264 134.08202973 2.26953125 137.33984375 C5.40824313 138.90919969 7.80808947 138.69185478 11.26953125 138.33984375 C14.33260756 136.36018112 14.33260756 136.36018112 16.26953125 133.33984375 C16.82301763 129.46543907 16.56921688 126.55940363 14.26953125 123.33984375 C11.46047521 121.17903141 10.06949352 121.35624029 6.45703125 121.65234375 C4.31152344 121.73193359 4.31152344 121.73193359 2.26953125 121.33984375 C0.76660156 119.81103516 0.76660156 119.81103516 -0.71484375 117.87890625 C-3.88667543 114.52276945 -6.07498172 113.77874762 -10.6640625 113.4375 C-12.83157237 113.39138277 -15.00007866 113.38047186 -17.16796875 113.40234375 C-18.28107422 113.38623047 -19.39417969 113.37011719 -20.54101562 113.35351562 C-23.27209674 113.31835149 -25.99938864 113.31466516 -28.73046875 113.33984375 C-28.75733428 111.36074977 -28.7768025 109.38155404 -28.79296875 107.40234375 C-28.80457031 106.30019531 -28.81617188 105.19804687 -28.828125 104.0625 C-28.73046875 101.33984375 -28.73046875 101.33984375 -27.73046875 100.33984375 C-22.67369698 100.02370308 -17.61448958 99.98299859 -12.54882812 99.93481445 C-10.84354373 99.91325525 -9.13836938 99.87917633 -7.43359375 99.83227539 C-4.97475796 99.76522057 -2.51821529 99.73780747 -0.05859375 99.71875 C0.69991882 99.69091934 1.4584314 99.66308868 2.2399292 99.63441467 C5.1612764 99.64571689 7.52512731 99.67656927 9.77404785 101.6803894 C10.9822747 103.20028011 12.12876239 104.7686893 13.26953125 106.33984375 C17.31694722 107.5685236 19.28144094 107.79092846 23.14453125 106.02734375 C25.35912435 104.51259212 25.35912435 104.51259212 26.26953125 102.33984375 C26.76009032 98.00657201 26.74697564 96.01984031 24.20703125 92.40234375 C20.52890613 89.81983037 18.67721262 89.6185868 14.26953125 90.33984375 C11.90455686 92.2069288 10.6092241 93.66045806 9.26953125 96.33984375 C-3.27046875 96.33984375 -15.81046875 96.33984375 -28.73046875 96.33984375 C-28.73046875 89.73984375 -28.73046875 83.13984375 -28.73046875 76.33984375 C-16.19046875 76.33984375 -3.65046875 76.33984375 9.26953125 76.33984375 C9.92953125 77.65984375 10.58953125 78.97984375 11.26953125 80.33984375 C13.89094425 82.45713887 16.09243304 82.45855664 19.33203125 82.21484375 C22.03511332 81.77188058 23.10246471 81.47558532 25.26953125 79.71484375 C26.70301337 76.31032372 26.78314794 73.99936268 26.26953125 70.33984375 C24.28986862 67.27676744 24.28986862 67.27676744 21.26953125 65.33984375 C17.39512657 64.78635737 14.48909113 65.04015812 11.26953125 67.33984375 C10.60953125 68.65984375 9.94953125 69.97984375 9.26953125 71.33984375 C-3.27046875 71.33984375 -15.81046875 71.33984375 -28.73046875 71.33984375 C-28.73046875 67.04984375 -28.73046875 62.75984375 -28.73046875 58.33984375 C-27.15136719 58.34886719 -25.57226562 58.35789063 -23.9453125 58.3671875 C-21.85283962 58.33903764 -19.76039168 58.30898959 -17.66796875 58.27734375 C-16.11045898 58.2937793 -16.11045898 58.2937793 -14.52148438 58.31054688 C-8.67607484 58.26392852 -8.67607484 58.26392852 -3.5871582 55.73022461 C-1.76783204 53.85533936 -1.76783204 53.85533936 -0.29980469 51.86865234 C1.26953125 50.33984375 1.26953125 50.33984375 3.66625977 49.95092773 C5.95703125 50.02734375 5.95703125 50.02734375 8.15625 50.2890625 C10.7419476 50.35119571 12.09064493 49.69225595 14.26953125 48.33984375 C16.36632528 45.64396572 16.26463946 44.24689975 16.08203125 40.77734375 C15.48858722 37.48999034 15.48858722 37.48999034 14.14453125 35.46484375 C11.18647013 33.69000708 8.69153079 33.45784373 5.26953125 33.33984375 C2.32197393 34.68546774 0.72675853 35.42538919 -0.73046875 38.33984375 C-0.62233198 39.73708465 -0.49467753 41.13285581 -0.35546875 42.52734375 C-0.34856105 46.37574761 -0.94661893 48.281935 -3.5703125 51.11328125 C-7.46728017 54.76496106 -10.59683839 55.08224175 -15.81054688 54.95507812 C-16.75349609 54.89642578 -17.69644531 54.83777344 -18.66796875 54.77734375 C-19.63798828 54.74576172 -20.60800781 54.71417969 -21.60742188 54.68164062 C-23.9849678 54.59965628 -26.35608574 54.4850318 -28.73046875 54.33984375 C-28.80486273 48.20176823 -28.85918644 42.06395767 -28.89526367 35.92553711 C-28.91031034 33.83922755 -28.93075257 31.75294942 -28.95678711 29.66674805 C-28.9933517 26.66056544 -29.01023665 23.65480263 -29.0234375 20.6484375 C-29.03892136 19.72212021 -29.05440521 18.79580292 -29.07035828 17.84141541 C-29.07195804 11.62584916 -28.44417589 6.49170153 -24.23046875 1.59765625 C-16.3837901 -4.32822085 -8.79954942 -3.79826941 0 0 Z " fill="#4742D8" transform="translate(287.73046875,75.66015625)"/>
<path d="M0 0 C16.5 0 33 0 50 0 C50 54.78 50 109.56 50 166 C33.5 166 17 166 0 166 C0 111.22 0 56.44 0 0 Z " fill="#4741D7" transform="translate(683,74)"/>
<path d="M0 0 C0.70253906 0.00829834 1.40507813 0.01659668 2.12890625 0.02514648 C11.99938086 0.34557201 18.39479107 4.44784991 25.125 11.4375 C30.03565357 17.64043082 31.63503121 24.01555468 31.43359375 31.82421875 C30.4622038 40.05029316 26.40229424 47.09764667 20.125 52.4375 C11.60175854 57.71691921 4.10385552 59.29987023 -5.875 58.4375 C-14.03386686 56.49713911 -20.78244229 52.08402949 -25.4453125 45.078125 C-29.81997627 37.02874366 -30.75146917 29.75624399 -28.65625 20.8515625 C-25.86794265 12.23569279 -19.58226116 5.84743753 -11.609375 1.765625 C-7.63389476 0.35175128 -4.16835758 -0.06375017 0 0 Z " fill="#4742D8" transform="translate(706.875,-0.4375)"/>
<path d="M0 0 C3.58511485 2.29028214 4.88700054 5.00941144 6.5625 8.875 C6.94002342 11.79578304 6.94002342 11.79578304 6.94345093 14.90232849 C6.9519104 16.08685608 6.96036987 17.27138367 6.96908569 18.49180603 C6.963013 19.77769119 6.95694031 21.06357635 6.95068359 22.38842773 C6.95475223 23.76710424 6.96009575 25.14577748 6.96661377 26.52444458 C6.9802599 30.25799303 6.97499967 33.99129203 6.96547651 37.72484469 C6.95786432 41.63867776 6.96492999 45.55248992 6.96963501 49.46632385 C6.97508868 56.03919292 6.96791187 62.61196077 6.95361328 69.18481445 C6.93729426 76.77386038 6.94257132 84.3626644 6.9590925 91.95170444 C6.9727266 98.47674258 6.97461744 105.00170808 6.96677649 111.52675587 C6.96210965 115.4197629 6.96144765 119.31265641 6.97138596 123.20565605 C6.98008119 126.86735294 6.97398745 130.52873946 6.95670319 134.19040298 C6.95087334 136.16781951 6.95973253 138.14526241 6.96908569 140.12266541 C6.87502441 153.32483797 6.87502441 153.32483797 1.765625 158.80078125 C-6.14181989 164.41506712 -13.77718988 166.05638824 -23.4375 164.875 C-30.41636984 162.68247988 -35.33173709 158.8897154 -39.4375 152.875 C-39.9325 151.885 -39.9325 151.885 -40.4375 150.875 C-42.38643777 150.11148712 -42.38643777 150.11148712 -44.6875 149.5 C-49.81910298 147.87091969 -53.05535517 145.84949261 -56.1875 141.375 C-58.12604321 137.49791358 -58.49300612 134.83269143 -58 130.5625 C-57.94534456 127.52166995 -58.03936887 126.32729217 -60.07421875 124.015625 C-61.50381943 122.86348841 -62.94297405 121.72312308 -64.390625 120.59375 C-68.7353363 116.94551914 -70.20291155 113.15617045 -70.77734375 107.5703125 C-70.95278495 101.04389974 -70.36814479 95.80390755 -67.97265625 89.75390625 C-67.12419022 86.77498537 -68.30718654 84.67103856 -69.4375 81.875 C-70.06306679 76.51299894 -69.56975625 73.76775127 -66.9375 69.0625 C-64.32084337 64.29696894 -64.19224115 60.89259907 -64.44140625 55.546875 C-64.43298214 49.78478095 -62.3791138 45.30087233 -59.25 40.5625 C-55.2878781 36.77647241 -51.03814523 33.875 -45.4375 33.875 C-45.48970703 32.91400391 -45.48970703 32.91400391 -45.54296875 31.93359375 C-45.7227778 26.18826649 -45.43032698 21.96280587 -42.4375 16.875 C-39.53779611 13.97529611 -37.47043191 12.16070457 -33.5 11.0625 C-30.13041797 9.75592738 -29.32819231 8.75652862 -27.125 6 C-20.41471528 -2.09354517 -9.5265573 -5.39140331 0 0 Z M-23.4375 10.125 C-23.7675 10.7025 -24.0975 11.28 -24.4375 11.875 C-23.365 12.41125 -22.2925 12.9475 -21.1875 13.5 C-17.43681587 15.64978236 -15.39736839 17.95526323 -13.4375 21.875 C-13.6875 24.25 -13.6875 24.25 -14.4375 25.875 C-15.7575 25.875 -17.0775 25.875 -18.4375 25.875 C-18.664375 25.1325 -18.89125 24.39 -19.125 23.625 C-20.76995584 20.17842587 -22.13913617 18.81099616 -25.4375 16.875 C-29.77916912 16.00490842 -32.59079771 16.35256667 -36.375 18.6875 C-39.87872152 22.40356828 -39.68389888 26.14035397 -40 31.0625 C-40.08378906 32.33480469 -40.16757813 33.60710937 -40.25390625 34.91796875 C-40.34478516 36.38169922 -40.34478516 36.38169922 -40.4375 37.875 C-41.54158203 38.20371094 -41.54158203 38.20371094 -42.66796875 38.5390625 C-50.48029885 41.07781178 -54.02295605 43.1556641 -57.8125 50.5625 C-58.43920834 53.88405418 -58.21572806 56.00266563 -57.75 59.3125 C-57.1491454 64.31512084 -57.1491454 64.31512084 -58.44140625 66.82421875 C-59.35226495 67.93749049 -60.27415525 69.04183067 -61.20703125 70.13671875 C-63.5327015 73.42218941 -63.77595883 76.94210845 -63.4375 80.875 C-61.72143046 86.77531318 -58.47908272 90.51394485 -53.4375 93.875 C-51.09799396 94.77408582 -48.89761513 95.33377467 -46.4375 95.875 C-46.4375 97.525 -46.4375 99.175 -46.4375 100.875 C-52.09056914 99.70539949 -55.6472793 98.21701444 -60.4375 94.875 C-61.4275 94.875 -62.4175 94.875 -63.4375 94.875 C-65.40853441 100.78810323 -65.43490506 107.50662325 -62.875 113.25 C-60.51269566 117.36498175 -57.48424125 119.47693111 -53.4375 121.875 C-52.7775 121.875 -52.1175 121.875 -51.4375 121.875 C-51.55609375 122.66003906 -51.6746875 123.44507813 -51.796875 124.25390625 C-52.8055964 131.31434569 -52.8055964 131.31434569 -50.75 137.9375 C-47.32376751 142.4373357 -47.32376751 142.4373357 -42.18359375 144.26953125 C-39.93472222 144.53348331 -37.69716734 144.73497788 -35.4375 144.875 C-35.2725 145.720625 -35.1075 146.56625 -34.9375 147.4375 C-32.87420904 152.16587512 -29.58719231 154.89215186 -25.4375 157.875 C-19.20467258 159.95260914 -11.86327932 159.96331083 -5.875 157.125 C-2.91091426 155.51865676 -1.22215481 153.73892272 0.5625 150.875 C1.0148057 148.13106681 1.0148057 148.13106681 0.95018005 145.07472229 C0.96008469 143.89005371 0.96998932 142.70538513 0.98019409 141.4848175 C0.97569244 140.1885997 0.9711908 138.8923819 0.96655273 137.55688477 C0.97225623 136.17525683 0.97922042 134.79363361 0.98735046 133.41201782 C1.00529983 129.66197067 1.00411018 125.91215727 0.99840808 122.16208005 C0.99531866 119.03081988 1.00140594 115.89960478 1.00744683 112.76835102 C1.02149638 105.38092965 1.01992733 97.9936239 1.00854492 90.60620117 C0.99706391 82.98643298 1.01113788 75.36701677 1.0379414 67.74729496 C1.06009736 61.2036407 1.06673601 54.66009692 1.06086498 48.11640781 C1.05749384 44.2088576 1.05992067 40.30153301 1.07711601 36.39401436 C1.09258155 32.7191517 1.08863459 29.04481044 1.06981087 25.36996841 C1.06436685 23.38020773 1.07864218 21.39042367 1.09350586 19.40071106 C1.08367172 18.21322266 1.07383759 17.02573425 1.06370544 15.80226135 C1.06349616 14.77228311 1.06328688 13.74230486 1.06307125 12.68111515 C0.43061736 9.1356889 -0.97495221 7.45325083 -3.4375 4.875 C-10.37025684 1.40862158 -18.60777905 4.69156394 -23.4375 10.125 Z " fill="#4742D7" transform="translate(248.4375,75.125)"/>
<path d="M0 0 C3.95401431 3.95401431 5.95908987 7.89487865 6.24525452 13.46624756 C6.24303391 14.32784485 6.24081329 15.18944214 6.23852539 16.07714844 C6.23844986 17.05786316 6.23837433 18.03857788 6.23829651 19.04901123 C6.23313522 20.10018127 6.22797394 21.15135132 6.22265625 22.234375 C6.2212413 23.31632141 6.21982635 24.39826782 6.21836853 25.51300049 C6.21277318 28.9670285 6.2002215 32.42099159 6.1875 35.875 C6.1824844 38.21744698 6.1779216 40.55989498 6.17382812 42.90234375 C6.16280527 48.64325417 6.14554379 54.38411608 6.125 60.125 C2.495 60.125 -1.135 60.125 -4.875 60.125 C-5.205 58.475 -5.535 56.825 -5.875 55.125 C-6.74125 55.90875 -7.6075 56.6925 -8.5 57.5 C-13.87868936 61.90528386 -19.18103074 62.596587 -25.99609375 62.4296875 C-31.68754018 61.82733632 -36.66921623 60.31285057 -40.796875 56.21875 C-45.28125522 50.49582667 -46.62731491 45.44297233 -45.875 38.125 C-43.80179987 31.57805224 -41.04116012 28.77140326 -35.04296875 25.65234375 C-29.45561868 23.30463152 -23.39565769 22.77287726 -17.4375 21.9375 C-16.22900391 21.76025391 -15.02050781 21.58300781 -13.77539062 21.40039062 C-10.80972695 20.96667697 -7.84307651 20.54182353 -4.875 20.125 C-5.16779514 18.51049228 -5.46885675 16.89748213 -5.7734375 15.28515625 C-5.94020996 14.38676025 -6.10698242 13.48836426 -6.27880859 12.56274414 C-6.77114262 9.98698809 -6.77114262 9.98698809 -8.5 7.5625 C-12.66381997 5.04229318 -16.54065336 4.68536472 -21.21875 5.56640625 C-26.35432388 7.06428197 -29.26190091 9.08683042 -32.875 13.125 C-36.28431897 14.26143966 -36.87835456 13.99247764 -40.0625 12.6875 C-41.13564453 12.25630859 -41.13564453 12.25630859 -42.23046875 11.81640625 C-42.77316406 11.58824219 -43.31585938 11.36007812 -43.875 11.125 C-41.86932233 4.92563265 -38.54553668 0.75908869 -32.8125 -2.1875 C-22.377729 -7.08461035 -9.63429993 -6.28323908 0 0 Z M-16.0625 30.9375 C-17.48272461 31.1859668 -17.48272461 31.1859668 -18.93164062 31.43945312 C-24.00055901 32.37683161 -28.45262794 33.32486968 -32.875 36.125 C-35.37531654 39.87547482 -35.41103554 41.68356266 -34.875 46.125 C-32.02444048 49.57567731 -29.85783206 51.91146424 -25.3359375 52.3984375 C-19.05728089 52.60507683 -14.74786444 52.26468236 -9.49609375 48.70703125 C-6.36727429 45.65360503 -4.96803605 43.18312997 -4.58203125 38.79296875 C-4.63423828 37.07013672 -4.63423828 37.07013672 -4.6875 35.3125 C-4.71457031 34.15105469 -4.74164063 32.98960937 -4.76953125 31.79296875 C-4.82173828 30.47232422 -4.82173828 30.47232422 -4.875 29.125 C-8.57088446 29.125 -12.43920705 30.27278648 -16.0625 30.9375 Z " fill="#989898" transform="translate(272.875,315.875)"/>
<path d="M0 0 C3.70289882 3.26623622 6.74444409 7.43159985 7.24050903 12.41717529 C7.2338472 13.76286591 7.2338472 13.76286591 7.22705078 15.13574219 C7.22689972 16.15649841 7.22674866 17.17725464 7.22659302 18.22894287 C7.21627045 19.32386047 7.20594788 20.41877808 7.1953125 21.546875 C7.1924826 22.6732135 7.18965271 23.799552 7.18673706 24.96002197 C7.17554374 28.55678946 7.15044037 32.15330779 7.125 35.75 C7.11496912 38.18879849 7.10584346 40.62760088 7.09765625 43.06640625 C7.07560712 49.04436681 7.04108277 55.02214116 7 61 C3.7 61 0.4 61 -3 61 C-3.495 58.03 -3.495 58.03 -4 55 C-4.680625 55.763125 -5.36125 56.52625 -6.0625 57.3125 C-11.9812522 62.72752861 -17.15332014 63.5791504 -25 63.34375 C-31.5161512 62.59710767 -36.16428157 60.29634865 -40.5 55.375 C-45.15678381 49.45053615 -44.58552669 43.3441776 -44 36 C-42.11378789 31.62398791 -39.63362166 29.07484544 -35.36328125 26.87109375 C-26.56759917 23.62904895 -16.66233999 22.71229533 -7.4140625 21.4296875 C-5.0569166 21.24766729 -5.0569166 21.24766729 -4 20 C-4.15729782 15.28106545 -4.33561758 12.91841099 -7.125 9.0625 C-11.08535224 6.22137774 -14.1791541 5.68839493 -19.015625 6.22265625 C-24.20713148 7.24312413 -27.23429193 9.32613846 -31 13 C-31.33 13.66 -31.66 14.32 -32 15 C-35.9492568 14.44894091 -39.34920174 13.61064629 -43 12 C-40.16557665 4.85232372 -36.80418571 1.5479802 -30 -2 C-20.56402198 -5.99214455 -8.77189682 -5.3351462 0 0 Z M-14.75 31.8125 C-15.75289062 31.97814453 -16.75578125 32.14378906 -17.7890625 32.31445312 C-23.83137422 33.3762652 -28.2907138 34.47133288 -32.875 38.75 C-34.57946691 42.15893382 -33.96849323 44.38429194 -33 48 C-30.73466753 50.86942113 -29.48277163 51.83907612 -26 53 C-19.77812579 53.5079081 -14.25496099 53.75354356 -9 50 C-5.49469919 46.50425041 -3.08720517 43.41035086 -2.90234375 38.30078125 C-2.91394531 37.31464844 -2.92554687 36.32851563 -2.9375 35.3125 C-2.94652344 34.31863281 -2.95554687 33.32476562 -2.96484375 32.30078125 C-2.97644531 31.54152344 -2.98804687 30.78226562 -3 30 C-6.88140346 30 -10.93740204 31.14891491 -14.75 31.8125 Z " fill="#989898" transform="translate(44,315)"/>
<path d="M0 0 C3.96 0 7.92 0 12 0 C14.10014546 6.01381037 16.19973902 12.02781303 18.29882812 18.04199219 C19.01254467 20.08664113 19.72641028 22.13123805 20.44042969 24.17578125 C21.46849416 27.11965388 22.4960171 30.06371504 23.5234375 33.0078125 C23.84122162 33.9174173 24.15900574 34.82702209 24.48641968 35.76419067 C26.02205664 40.16624692 27.54092013 44.57178816 29 49 C29.4031543 47.8354126 29.80630859 46.6708252 30.22167969 45.47094727 C31.73108675 41.11410488 33.24565521 36.75907112 34.76171875 32.40454102 C35.41480182 30.52644319 36.06651968 28.64787001 36.71679688 26.76879883 C37.65648938 24.05421166 38.60122241 21.34142208 39.546875 18.62890625 C39.83246277 17.80040665 40.11805054 16.97190704 40.41229248 16.11830139 C42.34121237 10.605838 44.56920308 5.31096529 47 0 C50.63 0 54.26 0 58 0 C55.87037941 7.33601231 53.4535671 14.50994782 50.83203125 21.68359375 C50.43352463 22.77857681 50.03501801 23.87355988 49.62443542 25.00172424 C48.78291979 27.31085153 47.93990206 29.6194319 47.09545898 31.92749023 C45.82827888 35.39433103 44.5691456 38.86402055 43.31054688 42.33398438 C40.91828372 48.90637177 38.47759956 55.45932958 36 62 C35.63807556 62.96174133 35.27615112 63.92348267 34.90325928 64.91436768 C33.90085819 67.54814448 32.86918736 70.16802314 31.82421875 72.78515625 C31.5391597 73.53889023 31.25410065 74.29262421 30.96040344 75.06919861 C28.78066667 80.37602384 25.79683882 83.81676265 21 87 C17.57767028 88.14077657 14.91326783 88.09815117 11.3125 88.0625 C10.13300781 88.05347656 8.95351563 88.04445313 7.73828125 88.03515625 C6.38283203 88.01775391 6.38283203 88.01775391 5 88 C4 86 4 86 4.55859375 84.0546875 C4.99365234 82.97574219 4.99365234 82.97574219 5.4375 81.875 C5.86869141 80.78832031 5.86869141 80.78832031 6.30859375 79.6796875 C6.53675781 79.12539063 6.76492188 78.57109375 7 78 C7.61488281 77.96261719 8.22976563 77.92523438 8.86328125 77.88671875 C9.67152344 77.82097656 10.47976563 77.75523437 11.3125 77.6875 C12.11300781 77.62949219 12.91351563 77.57148438 13.73828125 77.51171875 C16.48450032 76.89038076 17.1779428 76.111705 19 74 C21.47937448 69.98096723 23.24637545 66.08421973 22.681427 61.30502319 C21.82233815 58.37239361 20.7810415 55.59206559 19.62890625 52.76171875 C19.0389109 51.1977813 19.0389109 51.1977813 18.43699646 49.60224915 C17.17690095 46.28426801 15.87092464 42.98668031 14.5625 39.6875 C13.71629624 37.48361148 12.87316689 35.27853992 12.03320312 33.07226562 C9.72499063 27.03375658 7.36964031 21.01461994 5 15 C3.96309313 12.36232058 2.93089806 9.72299248 1.90234375 7.08203125 C1.52456787 6.12143799 1.14679199 5.16084473 0.75756836 4.17114258 C0 2 0 2 0 0 Z " fill="#989898" transform="translate(418,312)"/>
<path d="M0 0 C4.26050666 2.93177722 7.33144868 6.28822278 8.81640625 11.2734375 C8.85765625 11.9540625 8.89890625 12.6346875 8.94140625 13.3359375 C5.50203084 14.9082234 2.72736772 16.03335146 -1.05859375 15.3359375 C-1.51234375 14.5728125 -1.96609375 13.8096875 -2.43359375 13.0234375 C-4.21209003 10.08207827 -5.74076361 8.97086838 -8.9609375 7.78125 C-13.11076595 6.90028083 -16.98399062 7.22280815 -21.05859375 8.3359375 C-24.37689728 10.2350331 -24.37689728 10.2350331 -26.05859375 13.3359375 C-26.47769057 16.98576465 -26.47769057 16.98576465 -25.05859375 20.3359375 C-20.39621747 23.22733364 -15.44103163 24.39671447 -10.18359375 25.7109375 C4.15708205 29.51239371 4.15708205 29.51239371 8.60546875 35.62109375 C10.93911998 40.36345517 10.56541898 45.1755626 9.94140625 50.3359375 C7.35287899 55.81166823 3.24750086 59.90596578 -2.31640625 62.3125 C-11.73080896 65.47030906 -20.91688 65.38528722 -30.05859375 61.3359375 C-34.79405563 58.55874933 -37.22758653 55.66820877 -38.99609375 50.4609375 C-39.34671875 49.0996875 -39.69734375 47.7384375 -40.05859375 46.3359375 C-36.42859375 45.6759375 -32.79859375 45.0159375 -29.05859375 44.3359375 C-28.66671875 45.2640625 -28.27484375 46.1921875 -27.87109375 47.1484375 C-25.84791089 50.70644873 -24.68912623 51.59513056 -21.05859375 53.3359375 C-18.10934568 53.80676186 -18.10934568 53.80676186 -15.05859375 53.7109375 C-14.04796875 53.71867187 -13.03734375 53.72640625 -11.99609375 53.734375 C-7.70390748 53.15219016 -5.08268516 51.36002891 -2.05859375 48.3359375 C-1.62770699 45.03247237 -1.52242692 43.11886293 -3.43359375 40.328125 C-7.37013309 37.34057282 -11.68750297 36.51920945 -16.43359375 35.3359375 C-24.06741871 33.4169373 -29.50188096 31.60426817 -35.37109375 26.2109375 C-37.82527786 22.02973494 -38.24681387 18.14684383 -38.05859375 13.3359375 C-36.13922648 6.83141507 -32.86051686 2.93703642 -26.99609375 -0.4140625 C-18.52158824 -4.02023506 -8.26810451 -4.29393273 0 0 Z " fill="#989898" transform="translate(874.05859375,313.6640625)"/>
<path d="M0 0 C5.78175503 3.29856537 8.33836714 7.36515754 10.09417725 13.74880981 C10.91968857 18.07383607 10.7409647 22.45293456 10.6953125 26.83984375 C10.6924826 27.87315323 10.68965271 28.90646271 10.68673706 29.97108459 C10.67559647 33.25167722 10.65050304 36.53199073 10.625 39.8125 C10.6149623 42.04491792 10.60583783 44.27734014 10.59765625 46.50976562 C10.57567716 51.9649503 10.54118949 57.41992792 10.5 62.875 C6.87 62.875 3.24 62.875 -0.5 62.875 C-0.5093457 61.51294434 -0.51869141 60.15088867 -0.52832031 58.74755859 C-0.56826922 53.68179935 -0.63404243 48.61664427 -0.70751953 43.55126953 C-0.7357006 41.36124447 -0.75692934 39.17111823 -0.77099609 36.98095703 C-0.79246477 33.82792473 -0.83913675 30.67610515 -0.890625 27.5234375 C-0.89185364 26.54821136 -0.89308228 25.57298523 -0.89434814 24.56820679 C-1.01666103 18.85841895 -1.59014588 15.34886079 -5.5 10.875 C-9.9741002 7.89226653 -14.25438601 8.39471489 -19.5 8.875 C-23.31575433 10.16963093 -24.92150933 11.09702979 -27.3125 14.3125 C-29.01020434 17.97596726 -29.62051092 21.16208914 -29.70532227 25.18457031 C-29.72526749 26.02513977 -29.74521271 26.86570923 -29.76576233 27.73175049 C-29.79083107 29.07883087 -29.79083107 29.07883087 -29.81640625 30.453125 C-29.83718735 31.3796991 -29.85796844 32.30627319 -29.87937927 33.26092529 C-29.94466961 36.21554272 -30.00366431 39.17024768 -30.0625 42.125 C-30.10570473 44.13021732 -30.14931965 46.13542585 -30.19335938 48.140625 C-30.30032999 53.05199404 -30.40165518 57.96345097 -30.5 62.875 C-33.8 62.875 -37.1 62.875 -40.5 62.875 C-40.5 41.755 -40.5 20.635 -40.5 -1.125 C-37.2 -1.125 -33.9 -1.125 -30.5 -1.125 C-30.17 1.185 -29.84 3.495 -29.5 5.875 C-29.05269531 5.46507812 -28.60539062 5.05515625 -28.14453125 4.6328125 C-27.53996094 4.09398437 -26.93539062 3.55515625 -26.3125 3 C-25.72082031 2.46632813 -25.12914062 1.93265625 -24.51953125 1.3828125 C-17.37670377 -3.95013026 -7.85465739 -3.61896066 0 0 Z " fill="#979797" transform="translate(155.5,313.125)"/>
<path d="M0 0 C4.33349473 4.46095046 6.51618602 8.94715669 7.125 15.1875 C3.35339593 15.6630788 -0.12485425 15.89727335 -3.875 15.1875 C-5.76402008 13.28981469 -6.69774382 11.57174676 -7.77734375 9.1328125 C-9.17433564 6.65700481 -10.20712805 6.1146328 -12.875 5.1875 C-17.99397968 4.51333116 -23.14694214 4.38883358 -27.8125 6.8125 C-33.40259024 11.14767202 -35.49070805 15.64990702 -36.6171875 22.48046875 C-37.44833862 31.20755556 -36.03532135 38.96305011 -30.875 46.1875 C-27.30898091 49.69907605 -23.65599367 50.42817707 -18.75 50.625 C-14.68426369 50.47052674 -12.1824555 49.66809163 -8.875 47.1875 C-8.215 47.1875 -7.555 47.1875 -6.875 47.1875 C-6.565625 46.40375 -6.25625 45.62 -5.9375 44.8125 C-4.875 42.1875 -4.875 42.1875 -3.875 40.1875 C-0.245 40.1875 3.385 40.1875 7.125 40.1875 C4.90285541 48.5532208 1.49352714 54.47901317 -6 59.125 C-15.09776987 62.4872193 -23.5345463 61.94361878 -32.46875 58.3046875 C-39.31800543 55.12467605 -42.63211947 49.83492959 -45.875 43.1875 C-49.44534438 32.93637562 -49.48810619 20.56023337 -45.12890625 10.55078125 C-40.86940797 2.5227549 -35.80049206 -2.61661228 -26.953125 -5.421875 C-16.93624111 -7.30474791 -8.51484474 -5.36805429 0 0 Z " fill="#989898" transform="translate(764.875,316.8125)"/>
<path d="M0 0 C3.63 0 7.26 0 11 0 C11 5.28 11 10.56 11 16 C15.29 16 19.58 16 24 16 C24 18.97 24 21.94 24 25 C19.71 25 15.42 25 11 25 C11.04413411 30.76635004 11.11394772 36.53160315 11.20751953 42.29736328 C11.23573553 44.25853747 11.25694694 46.21982551 11.27099609 48.18115234 C11.29241699 51.00156977 11.33906209 53.82061743 11.390625 56.640625 C11.39185364 57.51680481 11.39308228 58.39298462 11.39434814 59.29571533 C11.49119615 64.28038454 11.49119615 64.28038454 13.90429688 68.546875 C16.175615 70.12176846 17.51515132 70.56767675 20.25 70.75 C21.4875 70.8325 22.725 70.915 24 71 C24.66 73.97 25.32 76.94 26 80 C21.43014404 82.28492798 14.5702162 81.83702616 9.79296875 80.28125 C4.95561727 77.66760476 1.7303095 74.19092849 0 69 C-0.08630926 67.54218278 -0.11770981 66.08072526 -0.11352539 64.62036133 C-0.11344986 63.73967484 -0.11337433 62.85898834 -0.11329651 61.95161438 C-0.10813522 61.00465195 -0.10297394 60.05768951 -0.09765625 59.08203125 C-0.0962413 58.10965012 -0.09482635 57.13726898 -0.09336853 56.13542175 C-0.08776817 53.02774996 -0.07521562 49.92015004 -0.0625 46.8125 C-0.05748505 44.70638125 -0.05292213 42.60026137 -0.04882812 40.49414062 C-0.03779862 35.32939936 -0.02053375 30.16471187 0 25 C-2.97 25 -5.94 25 -9 25 C-9 22.03 -9 19.06 -9 16 C-6.03 16 -3.06 16 0 16 C0 10.72 0 5.44 0 0 Z " fill="#979797" transform="translate(550,296)"/>
<path d="M0 0 C3.3 0 6.6 0 10 0 C10 28.38 10 56.76 10 86 C6.7 86 3.4 86 0 86 C0 57.62 0 29.24 0 0 Z " fill="#979797" transform="translate(345,290)"/>
<path d="M0 0 C3.63 0 7.26 0 11 0 C11 21.12 11 42.24 11 64 C7.37 64 3.74 64 0 64 C0 42.88 0 21.76 0 0 Z " fill="#979797" transform="translate(640,312)"/>
<path d="M0 0 C0.495 1.98 0.495 1.98 1 4 C0.12988281 4.25523437 0.12988281 4.25523437 -0.7578125 4.515625 C-5.70594645 6.05068966 -10.05168112 7.52171908 -14 11 C-15.33977397 13.64402362 -16.14190864 16.13969546 -17 19 C-16.278125 19.0825 -15.55625 19.165 -14.8125 19.25 C-10.24308059 20.46851184 -7.79168906 23.04997313 -4.8125 26.625 C-2.00849388 31.84625278 -0.24257093 37.29489619 -1.875 43.125 C-2.24625 43.74375 -2.6175 44.3625 -3 45 C-4.9375 44.6875 -4.9375 44.6875 -7 44 C-7.8368026 41.48959221 -8.33996056 39.21292625 -8.8125 36.625 C-9.74586592 32.48864456 -10.75710214 29.90154019 -14 27 C-21.01236783 23.17507209 -27.23932636 24.0180855 -35 25 C-35 23.35 -35 21.7 -35 20 C-31.09971775 17.39981184 -27.52565431 17.84914486 -23 18 C-22.9071875 16.4840625 -22.9071875 16.4840625 -22.8125 14.9375 C-22.0468515 9.75626219 -19.45733125 5.8570243 -15.2890625 2.70703125 C-9.98426944 -0.50132612 -5.98011926 -1.53774495 0 0 Z " fill="#4742D8" transform="translate(240,172)"/>
<path d="M0 0 C1.32 0.33 2.64 0.66 4 1 C4.08636719 1.80824219 4.17273438 2.61648437 4.26171875 3.44921875 C4.93531436 10.42866682 4.93531436 10.42866682 8.5 16.1875 C12.56750211 19.13643903 15.36830734 19.4375 20.328125 19.4375 C24.21634824 18.80083187 26.39008743 16.86164137 29.2109375 14.21484375 C31 13 31 13 33.2265625 13.31640625 C34.10441406 13.65478516 34.10441406 13.65478516 35 14 C34.78087133 17.83475164 34.05971606 18.94164113 31.25 21.6875 C25.24660289 25.95914795 20.29387684 26.86858381 13 26 C6.38133014 24.15564403 2.3262779 19.8929214 -1 14 C-2.18091333 10.30786737 -2.21097498 6.86787471 -2 3 C-1.34 2.01 -0.68 1.02 0 0 Z " fill="#4742D8" transform="translate(202,129)"/>
<path d="M0 0 C5.06406386 2.48425774 8.1357065 5.70540647 10 11 C10.44922272 14.49887552 10.61355667 17.77288665 9 21 C7.35 20.67 5.7 20.34 4 20 C3.89042969 19.31292969 3.78085938 18.62585938 3.66796875 17.91796875 C3.50941406 17.01691406 3.35085937 16.11585938 3.1875 15.1875 C3.03667969 14.29417969 2.88585937 13.40085937 2.73046875 12.48046875 C1.92590244 9.74838529 1.2812129 8.67217714 -1 7 C-5.68300074 6.09361276 -9.35316375 5.69307731 -14 7 C-14.33 5.35 -14.66 3.7 -15 2 C-9.77462227 -1.34960111 -5.84502292 -1.52159483 0 0 Z " fill="#4742D8" transform="translate(228,113)"/>
<path d="M0 0 C3.6875 0.3125 3.6875 0.3125 6.125 1.9375 C8.15911336 5.02935231 8.29355429 6.67617425 7.6875 10.3125 C6.0625 12.6875 6.0625 12.6875 3.6875 14.3125 C0.30235573 14.80616687 -1.57703845 14.69016945 -4.625 13.125 C-6.79244914 10.79699908 -7.23682671 9.4907781 -7.3125 6.3125 C-4.36200495 0.4115099 -4.36200495 0.4115099 0 0 Z " fill="#989898" transform="translate(645.3125,287.6875)"/>
<path d="M0 0 C1.875 1.6875 1.875 1.6875 3 4 C2.875 6.625 2.875 6.625 2 9 C-1 11 -1 11 -3.5625 10.75 C-6 10 -6 10 -8 8 C-7.75 4.4375 -7.75 4.4375 -7 1 C-4.4254716 -0.2872642 -2.85291355 -0.34791629 0 0 Z " fill="#4742D8" transform="translate(298,200)"/>
<path d="M0 0 C1.875 1.6875 1.875 1.6875 3 4 C2.875 6.625 2.875 6.625 2 9 C-1 11 -1 11 -3.5625 10.75 C-6 10 -6 10 -8 8 C-7.75 4.4375 -7.75 4.4375 -7 1 C-4.4254716 -0.2872642 -2.85291355 -0.34791629 0 0 Z " fill="#4742D8" transform="translate(308,169)"/>
<path d="M0 0 C2.9375 0.875 2.9375 0.875 4.9375 3.875 C4.6133631 7.19740324 4.32973697 8.48276303 1.9375 10.875 C-0.90852594 11.23987512 -2.4489306 11.27699375 -4.875 9.6875 C-6.48775784 7.22592224 -6.4959014 5.76434264 -6.0625 2.875 C-4.29035152 -0.0785808 -3.47140412 -0.14168996 0 0 Z " fill="#4742D8" transform="translate(306.0625,144.125)"/>
<path d="M0 0 C2.375 0.875 2.375 0.875 4.375 3.875 C4.0508631 7.19740324 3.76723697 8.48276303 1.375 10.875 C-2.25 10.5 -2.25 10.5 -5.625 9.875 C-5.955 7.565 -6.285 5.255 -6.625 2.875 C-4.28062075 0.70427848 -3.2584281 -0.15516324 0 0 Z " fill="#4742D8" transform="translate(296.625,112.125)"/>
</svg>
